<svg width="18" height="20" viewBox="0 0 18 20" fill="none" xmlns="http://www.w3.org/2000/svg">
<path opacity="0.24" fill-rule="evenodd" clip-rule="evenodd" d="M15.7222 7.23175V12.9426C15.7222 13.2702 15.9922 13.6032 16.3181 13.6846L16.6385 13.7648C17.1733 13.8984 17.5556 14.3689 17.5556 14.9091C17.5556 15.5624 17.0088 16.0909 16.3307 16.0909H1.66927C0.993687 16.0909 0.444444 15.56 0.444444 14.9091C0.444444 14.3666 0.825172 13.8979 1.36026 13.7647L1.69151 13.6822C2.0153 13.6016 2.27778 13.2732 2.27778 12.9426V7.22559C2.27778 3.63637 5.28675 0.727257 9 0.727257C12.7148 0.727257 15.7222 3.63539 15.7222 7.23175ZM9 19.6363C8.32437 19.6363 7.77778 19.1083 7.77778 18.4545H10.2222C10.2201 19.1063 9.67091 19.6363 9 19.6363Z" fill="black"/>
</svg>
